<?xml version="1.0" encoding="utf-8"?>
<svg viewBox="428.845 244.509 13.374 11.306" xmlns="http://www.w3.org/2000/svg">
  <path d="M 431.931 247.593 L 431.931 247.079 C 431.931 245.66 433.083 244.509 434.503 244.509 C 435.923 244.509 437.075 245.66 437.075 247.079 L 437.075 253.033 L 439.508 250.602 L 439.151 249.271 C 439.151 249.269 439.15 249.267 439.15 249.265 L 439.149 249.265 C 439.105 249.094 439.149 248.904 439.284 248.77 C 439.484 248.57 439.811 248.57 440.011 248.77 L 442.069 250.826 C 442.269 251.027 442.269 251.352 442.069 251.553 C 441.935 251.686 441.747 251.732 441.576 251.687 C 441.576 251.687 441.576 251.687 441.576 251.687 C 441.573 251.686 441.57 251.685 441.566 251.684 L 440.235 251.329 L 437.075 254.486 L 437.075 254.787 C 437.075 255.355 436.614 255.815 436.046 255.815 L 432.96 255.815 C 432.392 255.815 431.931 255.355 431.931 254.787 L 431.931 254.31 L 429.598 251.979 C 428.594 250.976 428.594 249.348 429.598 248.345 C 430.1 247.843 430.758 247.593 431.417 247.593 L 431.931 247.593 Z M 431.931 248.62 L 431.417 248.62 C 431.021 248.62 430.626 248.771 430.325 249.072 C 429.723 249.674 429.723 250.65 430.325 251.253 L 431.931 252.856 L 431.931 248.62 Z M 436.046 247.593 L 436.046 247.079 C 436.046 246.228 435.355 245.537 434.503 245.537 C 433.651 245.537 432.96 246.228 432.96 247.079 L 432.96 247.593 L 436.046 247.593 Z" style=""/>
  <rect style="stroke-linejoin: round; stroke-width: 7px; stroke-linecap: round; fill: rgb(251, 251, 251);" x="432.778" y="248.54" width="3.553" height="5.593" rx="1" ry="1"/>
</svg>